<svg xmlns="http://www.w3.org/2000/svg" xmlns:xlink="http://www.w3.org/1999/xlink" version="1.1" x="0px" y="0px" viewBox="0 0 64 64" enable-background="new 0 0 64 64" xml:space="preserve"><g><path fill="#000000" d="M38.987,21.601c-0.435-0.602-1.076-0.939-1.806-0.949c-0.335-0.005-0.679,0.063-1.021,0.199l-0.135,0.053   c-0.184,0.073-0.379,0.15-0.577,0.237c-0.333,0.146-0.603,0.288-0.874,0.461l-0.468,0.301c-0.258,0.141-0.496,0.282-0.727,0.428   c-1.123,0.712-2.199,1.449-3.169,2.116l-0.662,0.44c-0.585-0.409-1.166-0.795-1.732-1.148c-1.552-0.971-3.042-1.744-4.556-2.362   c-0.198-0.079-0.4-0.16-0.634-0.248c-0.238-0.09-0.491-0.183-0.766-0.281l-0.266-0.094c-0.252-0.086-0.503-0.172-0.759-0.259   c1.749-0.287,3.492,0.029,4.82,0.337c0.856,0.202,1.645-0.216,1.836-0.957c0.111-0.428,0.059-0.827-0.15-1.154   c-0.204-0.319-0.55-0.549-0.999-0.665c-1.963-0.507-3.76-0.654-5.495-0.451c-1.64,0.192-2.998,0.647-4.161,1.391   c-0.247,0.157-0.487,0.329-0.719,0.514c-0.058,0.045-0.104,0.085-0.151,0.131c-0.641-0.043-1.115-0.053-1.313-0.055l-0.09,0   c-0.185,0.005-0.351,0.011-0.503,0.021c-2.234,0.137-4.35,0.796-6.242,1.941c-2.831,1.712-5.061,4.236-6.601,7.455l-0.217,0.325   c-0.261,0.39-0.395,0.811-0.397,1.245c-0.002,0.053,0,0.108,0.003,0.11c-0.005,0.057-0.008,0.113-0.007,0.155   c-0.009,0.442,0.113,0.867,0.365,1.265l0.182,0.281c1.482,3.306,3.646,5.887,6.43,7.672c1.87,1.2,3.953,1.907,6.189,2.102   c0.152,0.014,0.317,0.025,0.511,0.034l0.087,0.003c0.194,0.002,0.667,0.004,1.309-0.022c0.038,0.039,0.084,0.082,0.144,0.131   c0.231,0.194,0.467,0.373,0.708,0.535c1.145,0.775,2.494,1.265,4.124,1.5c1.729,0.249,3.53,0.148,5.505-0.307   c0.965-0.223,1.395-0.926,1.195-1.788c-0.176-0.763-0.938-1.186-1.811-1.005c-1.335,0.274-3.085,0.545-4.827,0.212   c0.256-0.079,0.512-0.159,0.768-0.241l0.267-0.086c0.279-0.09,0.533-0.176,0.796-0.267c0.216-0.076,0.42-0.151,0.621-0.226   c1.528-0.575,3.025-1.303,4.614-2.241c0.562-0.331,1.144-0.695,1.762-1.103l0.699,0.492c0.902,0.657,1.957,1.421,3.065,2.164   c0.226,0.151,0.46,0.298,0.69,0.431l0.507,0.345c0.48,0.323,0.996,0.542,1.411,0.718l0.131,0.056   c0.34,0.146,0.683,0.222,1.019,0.227c0.327,0.004,0.64-0.058,0.93-0.185c0.352-0.155,0.655-0.396,0.9-0.717   c0.572-0.75,0.608-1.767,0.094-2.654l-0.3-0.505c-0.242-0.403-0.477-0.793-0.69-1.184c-0.113-0.206-0.221-0.413-0.319-0.622   c-0.076-0.159-0.144-0.311-0.208-0.46c-0.226-0.533-0.406-1.088-0.542-1.664c-0.067-0.304-0.122-0.614-0.162-0.918   c-0.064-0.497-0.094-0.991-0.087-1.473l0.004-0.319c0.007-0.48,0.05-0.974,0.126-1.465c0.049-0.305,0.112-0.614,0.19-0.932   c0.146-0.555,0.341-1.104,0.58-1.631c0.068-0.149,0.141-0.299,0.221-0.457c0.105-0.206,0.217-0.41,0.335-0.612   c0.224-0.385,0.468-0.769,0.721-1.166l0.313-0.498C39.549,23.384,39.539,22.367,38.987,21.601z M34.723,37.183   c0.02,0.041,0.04,0.082,0.06,0.124c-0.9-0.607-1.759-1.223-2.486-1.751L30.7,34.422c-0.156-0.111-0.629-0.449-1.273-0.457   c-0.285-0.004-0.568,0.055-0.841,0.175c-0.138,0.06-0.276,0.138-0.417,0.233l-0.33,0.222c-0.601,0.401-1.203,0.78-1.789,1.126   c-1.439,0.847-2.778,1.497-4.133,2.01c-0.403,0.153-0.834,0.301-1.422,0.491l-0.989,0.309c-2.227,0.585-4.952,0.567-5.255,0.563   c-0.137-0.007-0.258-0.015-0.367-0.024c-1.734-0.152-3.345-0.699-4.789-1.625c-2.32-1.487-4.055-3.58-5.304-6.397l-0.169-0.299   l0.175-0.292c1.324-2.787,3.114-4.834,5.471-6.26c1.464-0.885,3.099-1.393,4.83-1.499c0.111-0.007,0.231-0.012,0.368-0.015   c0.302,0.004,3.018,0.054,5.237,0.698l1.046,0.358c0.519,0.184,0.947,0.343,1.345,0.506c1.339,0.546,2.674,1.239,4.08,2.117   c0.588,0.369,1.18,0.764,1.761,1.175l0.324,0.229c0.406,0.291,0.813,0.434,1.245,0.439c0.466,0.007,0.988-0.22,1.284-0.423   l1.628-1.093c0.693-0.476,1.6-1.092,2.53-1.684c-0.021,0.041-0.042,0.082-0.063,0.123c-0.101,0.197-0.19,0.383-0.278,0.574   c-0.286,0.631-0.523,1.283-0.703,1.934l-0.072,0.267c-0.094,0.384-0.174,0.775-0.236,1.164c-0.099,0.641-0.155,1.281-0.164,1.907   l-0.005,0.326c-0.007,0.626,0.032,1.267,0.115,1.909c0.051,0.389,0.121,0.782,0.215,1.21c0.018,0.078,0.036,0.154,0.055,0.224   c0.164,0.656,0.383,1.314,0.654,1.957C34.543,36.794,34.628,36.983,34.723,37.183z M38.69,24.059L38.69,24.059L38.69,24.059   L38.69,24.059z"></path><path fill="#000000" d="M26.022,31.968c-0.132-0.431-0.472-0.699-0.958-0.754c-0.328-0.037-0.656-0.078-0.984-0.118   c-0.773-0.096-1.573-0.195-2.368-0.25c-0.675-0.047-1.29-0.073-1.88-0.081c-1.582-0.021-2.986,0.097-4.292,0.359   c-0.764,0.152-1.292,0.653-1.485,1.409c-0.186,0.731,0.022,1.402,0.602,1.94l0.015,0.013c0.395,0.324,0.817,0.491,1.254,0.497   c0.244,0.003,0.491-0.045,0.735-0.143c1.614-0.652,3.385-1.067,5.744-1.346c0.609-0.073,1.236-0.116,1.842-0.159   c0.261-0.018,0.522-0.036,0.783-0.057c0.375-0.029,0.695-0.2,0.878-0.467C26.073,32.568,26.113,32.268,26.022,31.968z"></path><path fill="#000000" d="M11.748,27.652c0.899,0.8,0.983,2.203,0.185,3.106c-0.803,0.908-2.212,1.02-3.119,0.248   c-0.94-0.8-1.016-2.275-0.166-3.197C9.486,26.901,10.827,26.832,11.748,27.652z"></path><path fill="#000000" d="M43.538,7.969c0.674,0.6,0.737,1.651,0.139,2.328c-0.602,0.681-1.658,0.765-2.338,0.186   c-0.704-0.6-0.762-1.705-0.124-2.396C41.843,7.406,42.848,7.355,43.538,7.969z"></path><path fill="#000000" d="M43.286,49.531c0.674,0.6,0.737,1.651,0.139,2.328c-0.602,0.681-1.658,0.765-2.338,0.186   c-0.704-0.6-0.762-1.705-0.124-2.396C41.591,48.968,42.596,48.917,43.286,49.531z"></path><path fill="#000000" d="M63.245,3.943c-0.321-0.444-0.793-0.692-1.331-0.699C61.667,3.24,61.413,3.29,61.161,3.39l-0.099,0.039   c-0.136,0.054-0.28,0.111-0.426,0.175c-0.246,0.108-0.445,0.212-0.645,0.34l-0.345,0.222c-0.19,0.104-0.365,0.208-0.536,0.315   c-0.828,0.525-1.621,1.068-2.336,1.56l-0.488,0.324c-0.431-0.301-0.86-0.586-1.276-0.846c-1.144-0.716-2.242-1.286-3.359-1.741   c-0.146-0.058-0.295-0.118-0.468-0.183c-0.175-0.066-0.362-0.135-0.565-0.207l-0.196-0.07c-0.185-0.064-0.371-0.127-0.56-0.191   c1.289-0.211,2.574,0.021,3.553,0.249c0.631,0.149,1.213-0.159,1.354-0.705c0.082-0.315,0.044-0.61-0.111-0.85   c-0.151-0.235-0.405-0.405-0.736-0.49c-1.447-0.373-2.772-0.482-4.051-0.332c-1.209,0.142-2.21,0.477-3.067,1.025   c-0.182,0.115-0.359,0.243-0.53,0.379c-0.043,0.033-0.077,0.063-0.112,0.097C45.69,2.467,45.34,2.46,45.194,2.458l-0.067,0   c-0.136,0.003-0.258,0.008-0.371,0.015c-1.647,0.101-3.207,0.587-4.602,1.431c-2.087,1.262-3.731,3.122-4.866,5.495l-0.16,0.24   c-0.193,0.287-0.291,0.598-0.293,0.918c-0.001,0.039,0,0.079,0.003,0.081c-0.003,0.042-0.006,0.084-0.005,0.114   c-0.007,0.326,0.083,0.639,0.269,0.932l0.134,0.207c1.093,2.437,2.688,4.34,4.74,5.656c1.379,0.884,2.914,1.406,4.563,1.55   c0.112,0.01,0.234,0.018,0.377,0.025l0.064,0.002c0.143,0.001,0.492,0.003,0.965-0.016c0.028,0.029,0.062,0.061,0.106,0.097   c0.17,0.143,0.344,0.275,0.522,0.394c0.844,0.571,1.839,0.933,3.04,1.105c1.275,0.183,2.602,0.109,4.058-0.226   c0.712-0.165,1.029-0.682,0.881-1.318c-0.13-0.563-0.691-0.874-1.335-0.741c-0.984,0.202-2.274,0.402-3.558,0.157   c0.188-0.058,0.377-0.117,0.566-0.178l0.196-0.064c0.206-0.066,0.393-0.13,0.587-0.197c0.159-0.056,0.31-0.111,0.458-0.167   c1.126-0.424,2.23-0.961,3.402-1.652c0.414-0.244,0.843-0.512,1.299-0.813l0.515,0.363c0.665,0.485,1.443,1.048,2.259,1.595   c0.166,0.111,0.339,0.22,0.509,0.318l0.374,0.255c0.354,0.238,0.734,0.4,1.04,0.529l0.097,0.041   c0.251,0.107,0.503,0.163,0.751,0.167c0.241,0.003,0.472-0.043,0.685-0.137c0.26-0.114,0.483-0.292,0.663-0.529   c0.422-0.553,0.448-1.303,0.069-1.956l-0.221-0.373c-0.179-0.297-0.352-0.585-0.509-0.873c-0.083-0.152-0.163-0.304-0.236-0.458   c-0.056-0.117-0.106-0.229-0.154-0.339c-0.166-0.393-0.299-0.802-0.399-1.226c-0.05-0.224-0.09-0.453-0.12-0.677   c-0.047-0.366-0.069-0.731-0.064-1.086l0.003-0.235c0.005-0.354,0.037-0.718,0.093-1.08c0.036-0.225,0.083-0.452,0.14-0.687   c0.108-0.409,0.252-0.814,0.428-1.202c0.05-0.11,0.104-0.22,0.163-0.337c0.077-0.152,0.16-0.302,0.247-0.451   c0.165-0.284,0.345-0.567,0.531-0.859L63.264,5.9C63.659,5.257,63.652,4.507,63.245,3.943z M60.102,15.429   c0.015,0.03,0.03,0.061,0.044,0.091c-0.663-0.447-1.297-0.902-1.833-1.291l-1.177-0.836c-0.115-0.082-0.464-0.331-0.939-0.337   c-0.21-0.003-0.419,0.04-0.62,0.129c-0.102,0.045-0.203,0.102-0.307,0.172l-0.243,0.164c-0.443,0.295-0.887,0.575-1.319,0.83   c-1.061,0.625-2.048,1.104-3.047,1.482c-0.297,0.112-0.615,0.222-1.048,0.362l-0.729,0.228c-1.641,0.431-3.651,0.418-3.874,0.415   c-0.101-0.005-0.191-0.011-0.271-0.018c-1.278-0.112-2.466-0.515-3.531-1.198c-1.71-1.096-2.989-2.639-3.91-4.716l-0.124-0.221   l0.129-0.215c0.976-2.054,2.296-3.564,4.033-4.615c1.079-0.652,2.285-1.027,3.56-1.105c0.082-0.005,0.17-0.009,0.271-0.011   c0.223,0.003,2.225,0.04,3.86,0.515L49.8,5.521c0.383,0.135,0.698,0.253,0.992,0.373c0.987,0.403,1.971,0.913,3.007,1.561   c0.434,0.272,0.87,0.563,1.298,0.866l0.239,0.169c0.299,0.214,0.599,0.32,0.918,0.324c0.343,0.005,0.728-0.162,0.946-0.312   l1.2-0.806c0.511-0.351,1.18-0.805,1.865-1.242c-0.015,0.03-0.031,0.06-0.046,0.091c-0.074,0.145-0.14,0.283-0.205,0.423   c-0.211,0.465-0.385,0.946-0.518,1.426l-0.053,0.197c-0.07,0.283-0.128,0.571-0.174,0.858c-0.073,0.473-0.114,0.945-0.121,1.406   l-0.004,0.241c-0.005,0.461,0.023,0.934,0.085,1.407c0.038,0.287,0.089,0.577,0.158,0.892c0.013,0.057,0.027,0.114,0.04,0.165   c0.121,0.484,0.282,0.969,0.482,1.443C59.969,15.142,60.032,15.282,60.102,15.429z M63.026,5.754L63.026,5.754L63.026,5.754   L63.026,5.754z"></path><path fill="#000000" d="M53.688,11.585c-0.097-0.318-0.348-0.515-0.706-0.556c-0.242-0.028-0.483-0.057-0.725-0.087   c-0.57-0.071-1.16-0.143-1.745-0.184c-0.497-0.034-0.951-0.054-1.386-0.059c-1.166-0.015-2.202,0.071-3.164,0.264   c-0.564,0.112-0.952,0.481-1.095,1.039c-0.137,0.539,0.017,1.033,0.444,1.43l0.011,0.01c0.291,0.239,0.602,0.362,0.924,0.366   c0.18,0.002,0.362-0.033,0.542-0.106c1.19-0.48,2.496-0.786,4.234-0.992c0.449-0.054,0.911-0.086,1.358-0.117   c0.192-0.013,0.385-0.027,0.577-0.042c0.277-0.022,0.513-0.147,0.647-0.344C53.725,12.027,53.755,11.806,53.688,11.585z"></path><path fill="#000000" d="M62.516,46.208c-0.321-0.444-0.793-0.692-1.331-0.699c-0.247-0.003-0.501,0.047-0.753,0.147l-0.099,0.039   c-0.136,0.054-0.28,0.111-0.426,0.175c-0.246,0.108-0.445,0.212-0.645,0.34l-0.345,0.222c-0.19,0.104-0.365,0.208-0.536,0.315   c-0.828,0.525-1.621,1.068-2.336,1.56l-0.488,0.324c-0.431-0.301-0.86-0.586-1.276-0.846c-1.144-0.716-2.242-1.286-3.359-1.741   c-0.146-0.058-0.295-0.118-0.468-0.183c-0.175-0.066-0.362-0.135-0.565-0.207l-0.196-0.07c-0.185-0.064-0.371-0.127-0.56-0.191   c1.289-0.211,2.574,0.021,3.553,0.249c0.631,0.149,1.213-0.159,1.354-0.705c0.082-0.315,0.044-0.61-0.111-0.85   c-0.151-0.235-0.405-0.405-0.736-0.49c-1.447-0.373-2.772-0.482-4.051-0.332c-1.209,0.142-2.21,0.477-3.067,1.025   c-0.182,0.115-0.359,0.243-0.53,0.379c-0.043,0.033-0.077,0.063-0.112,0.097c-0.473-0.031-0.822-0.039-0.968-0.041l-0.067,0   c-0.136,0.003-0.258,0.008-0.371,0.015c-1.647,0.101-3.207,0.587-4.602,1.431c-2.087,1.262-3.731,3.122-4.866,5.495l-0.16,0.24   c-0.193,0.287-0.291,0.598-0.293,0.918c-0.001,0.039,0,0.079,0.003,0.081c-0.003,0.042-0.006,0.084-0.005,0.114   c-0.007,0.326,0.083,0.639,0.269,0.932l0.134,0.207c1.093,2.437,2.688,4.34,4.74,5.656c1.379,0.884,2.914,1.406,4.563,1.55   c0.112,0.01,0.234,0.018,0.377,0.025l0.064,0.002c0.143,0.001,0.492,0.003,0.965-0.016c0.028,0.029,0.062,0.061,0.106,0.097   c0.17,0.143,0.344,0.275,0.522,0.394c0.844,0.571,1.839,0.933,3.04,1.105c1.275,0.183,2.602,0.109,4.058-0.226   c0.712-0.165,1.029-0.682,0.881-1.318c-0.13-0.563-0.691-0.874-1.335-0.741c-0.984,0.202-2.274,0.402-3.558,0.157   c0.188-0.058,0.377-0.117,0.566-0.178l0.196-0.064c0.206-0.066,0.393-0.13,0.587-0.197c0.159-0.056,0.31-0.111,0.458-0.167   c1.126-0.424,2.23-0.961,3.402-1.652c0.414-0.244,0.843-0.512,1.299-0.813l0.515,0.363c0.665,0.485,1.443,1.048,2.259,1.595   c0.166,0.111,0.339,0.22,0.509,0.318l0.374,0.255c0.354,0.238,0.734,0.4,1.04,0.529l0.097,0.041   c0.251,0.107,0.503,0.163,0.751,0.167c0.241,0.003,0.472-0.043,0.685-0.137c0.26-0.114,0.483-0.292,0.663-0.529   c0.422-0.553,0.448-1.303,0.069-1.956l-0.221-0.373c-0.179-0.297-0.352-0.585-0.509-0.873c-0.083-0.152-0.163-0.304-0.236-0.458   c-0.056-0.117-0.106-0.229-0.154-0.339c-0.166-0.393-0.299-0.802-0.399-1.226c-0.05-0.224-0.09-0.453-0.12-0.677   c-0.047-0.366-0.069-0.731-0.064-1.086l0.003-0.235c0.005-0.354,0.037-0.718,0.093-1.08c0.036-0.225,0.083-0.452,0.14-0.687   c0.108-0.409,0.252-0.814,0.428-1.202c0.05-0.11,0.104-0.22,0.163-0.337c0.077-0.152,0.16-0.302,0.247-0.451   c0.165-0.284,0.345-0.567,0.531-0.859l0.231-0.367C62.93,47.522,62.922,46.772,62.516,46.208z M59.372,57.695   c0.015,0.03,0.03,0.061,0.044,0.091c-0.663-0.447-1.297-0.902-1.833-1.291l-1.177-0.836c-0.115-0.082-0.464-0.331-0.939-0.337   c-0.21-0.003-0.419,0.04-0.62,0.129c-0.102,0.045-0.203,0.102-0.307,0.172l-0.243,0.164c-0.443,0.295-0.887,0.575-1.319,0.83   c-1.061,0.625-2.048,1.104-3.047,1.482c-0.297,0.112-0.615,0.222-1.048,0.362l-0.729,0.228c-1.641,0.431-3.651,0.418-3.874,0.415   c-0.101-0.005-0.191-0.011-0.271-0.018c-1.278-0.112-2.466-0.515-3.531-1.198c-1.71-1.096-2.989-2.639-3.91-4.716l-0.124-0.221   l0.129-0.215c0.976-2.054,2.296-3.564,4.033-4.615c1.079-0.652,2.285-1.027,3.56-1.105c0.082-0.005,0.17-0.009,0.271-0.011   c0.223,0.003,2.225,0.04,3.86,0.515l0.771,0.264c0.383,0.135,0.698,0.253,0.992,0.373c0.987,0.403,1.971,0.913,3.007,1.561   c0.434,0.272,0.87,0.563,1.298,0.866l0.239,0.169c0.299,0.214,0.599,0.32,0.918,0.324c0.343,0.005,0.728-0.162,0.946-0.312   l1.2-0.806c0.511-0.351,1.18-0.805,1.865-1.242c-0.015,0.03-0.031,0.06-0.046,0.091c-0.074,0.145-0.14,0.283-0.205,0.423   c-0.211,0.465-0.385,0.946-0.518,1.426l-0.053,0.197c-0.07,0.283-0.128,0.571-0.174,0.858c-0.073,0.473-0.114,0.945-0.121,1.406   l-0.004,0.241c-0.005,0.461,0.023,0.934,0.085,1.407c0.038,0.287,0.089,0.577,0.158,0.892c0.013,0.057,0.027,0.114,0.04,0.165   c0.121,0.484,0.282,0.969,0.482,1.443C59.24,57.407,59.302,57.547,59.372,57.695z M62.297,48.02L62.297,48.02L62.297,48.02   L62.297,48.02z"></path><path fill="#000000" d="M52.958,53.85c-0.097-0.318-0.348-0.515-0.706-0.556c-0.242-0.028-0.483-0.057-0.725-0.087   c-0.57-0.071-1.16-0.143-1.745-0.184c-0.497-0.034-0.951-0.054-1.386-0.059c-1.166-0.015-2.201,0.071-3.164,0.264   c-0.564,0.112-0.952,0.481-1.095,1.039c-0.137,0.539,0.017,1.033,0.444,1.43l0.011,0.01c0.291,0.239,0.602,0.362,0.924,0.366   c0.18,0.002,0.362-0.033,0.542-0.106c1.19-0.48,2.496-0.786,4.234-0.992c0.449-0.054,0.911-0.086,1.358-0.117   c0.192-0.013,0.385-0.027,0.577-0.042c0.277-0.022,0.513-0.147,0.647-0.344C52.995,54.292,53.026,54.072,52.958,53.85z"></path></g></svg>