<svg xmlns="http://www.w3.org/2000/svg" xmlns:xlink="http://www.w3.org/1999/xlink" version="1.1" x="0px" y="0px" viewBox="0 0 64 64" enable-background="new 0 0 64 64" xml:space="preserve"><g><path fill="#000000" d="M62.799,19.451c-2.318,6.399-4.625,12.797-6.931,19.202c-0.16,0.451-0.442,0.657-0.896,0.695   c-2.725,0.258-5.39,0.003-7.861-1.226c-1.152-0.573-2.207-1.356-3.279-2.089c-1.136-0.782-2.309-1.487-3.595-2.002   c-1.399-0.563-2.835-0.695-4.311-0.529c-0.99,0.106-1.951,0.313-2.888,0.603l-0.014,0.005c-0.487,0.146-0.976,0.317-1.455,0.508   l-1.311,0.457l-0.561,0.195l-0.046,0.016c-0.001-0.339-0.003-0.632-0.003-0.933c0-0.221,0.001-0.447,0.003-0.698l0.607-0.248   l0.427-0.175l0.031-19.467l-1.136,0.041v-1.962c0.853-0.248,2.379-0.518,3.236-0.728c2.199-0.541,4.478-0.62,6.721-0.416   c2.12,0.194,4.175,0.685,6.109,1.605c1.524,0.72,2.797,1.796,3.973,2.989c0.411,0.422,0.835,0.826,1.234,1.247   c1.77,1.888,3.964,2.644,6.511,2.531c1.48-0.061,2.932-0.31,4.352-0.759c0.348-0.114,0.679-0.149,0.958,0.138   C62.953,18.747,62.933,19.085,62.799,19.451z"></path><path fill="#000000" d="M28.426,52.532c0.01-1.445,0.012-6.964,0.014-8.378l0.001-1.009c0.002-1.058,0.002-2.117,0.003-3.175   c0.001-1.203,0.001-2.406,0.004-3.609c0.002-0.879,0.005-1.757,0.009-2.636c0.003-0.872,0.007-1.744,0.009-2.615   c0.002-1.138,0.003-2.275,0.004-3.413c0.001-1.124,0.001-2.248,0.004-3.372c0.002-0.896,0.005-1.791,0.009-2.687   c0.003-0.855,0.03-11.318,0.024-12.429c-0.005-0.929-0.729-1.714-1.648-1.787c-0.038-0.003-0.076-0.005-0.114-0.005   c-0.991-0.011-1.777,0.781-1.79,1.804c-0.004,0.31-0.002,0.621,0.001,0.922c0.001,0.191,0.003,0.382,0.003,0.573l0,0.316   c-0.002,2.109-0.013,6.104-0.016,6.941c-0.003,0.945-0.007,1.889-0.008,2.834c-0.002,0.991-0.002,1.981-0.002,2.972   c0,1.209,0,2.418-0.003,3.627c-0.003,1.156-0.008,2.312-0.013,3.468c-0.005,1.028-0.009,2.056-0.012,3.084   c-0.006,2.293-0.009,4.586-0.01,6.879c-0.001,0.775,0,1.55,0.001,2.325c0.001,1.022,0.002,2.043,0,3.065   c-0.002,0.769-0.009,5.604-0.016,6.362c-1.937,0.436-3.309,1.514-3.309,2.776c0,1.647,2.336,2.982,5.218,2.982   s5.218-1.335,5.218-2.982C32.005,54.044,30.505,52.925,28.426,52.532z"></path><path fill="#000000" d="M16.886,9.991c-0.031,3.064-2.803,5.791-5.833,5.737c-3.061-0.054-5.782-2.836-5.73-5.855   c0.054-3.125,2.706-5.699,5.847-5.678C14.285,4.217,16.916,6.883,16.886,9.991z"></path><path fill="#000000" d="M23.242,29.019c-0.35-0.732-0.424-1.625-0.498-2.489c-0.038-0.447-0.077-0.911-0.155-1.337   c-0.172-0.958-0.347-1.951-0.529-2.982l-0.267-1.513c-0.198-1.14-0.846-1.895-1.925-2.241c-0.58-0.187-1.16-0.363-1.653-0.512   c-0.113-0.033-0.224-0.066-0.336-0.102c-0.114-0.034-0.228-0.069-0.34-0.103c-0.14-0.043-0.279-0.087-0.42-0.13   c-0.138-0.043-0.275-0.085-0.411-0.129c-0.117-0.038-0.211-0.057-0.302-0.061c-0.61-0.224-1.177-0.424-1.419-0.424   c-0.034,0-0.062,0.004-0.085,0.011c-0.305,0.081-0.426,0.344-0.491,0.534c-0.027,0.079-0.332,1.059-0.717,2.299l-0.1,0.325   c-0.347,1.114-0.759,2.436-0.995,3.176c-0.052-0.393-0.108-0.828-0.165-1.262c-0.084-0.61-0.163-1.216-0.222-1.69l-0.003-0.016   c-0.001-0.009-0.003-0.018-0.004-0.027c-0.001-0.027-0.004-0.052-0.009-0.085c-0.052-0.401-0.077-0.614-0.084-0.681   c0.037-0.089,0.075-0.178,0.118-0.27l0.011-0.028c0.012-0.03,0.024-0.061,0.039-0.091l0.011-0.028   c0.005-0.011,0.009-0.022,0.009-0.022c0.028-0.069,0.064-0.144,0.095-0.209l0.009-0.022c0.003-0.005,0.007-0.011,0.011-0.018   c0.007-0.011,0.014-0.023,0.022-0.039l0.027-0.045c0.057-0.115,0.122-0.245,0.122-0.411c0-0.045-0.018-0.113-0.122-0.401   l-0.005-0.014c-0.06-0.152-0.069-0.179-0.085-0.197c-0.084-0.125-0.188-0.161-0.248-0.175c-0.008-0.003-0.015-0.004-0.022-0.005   l-0.018-0.009h-0.084c-0.046-0.016-0.08-0.016-0.102-0.016c-0.122-0.009-0.42-0.009-0.797-0.009c-0.374,0-0.671,0-0.784,0.008   c-0.03,0-0.065,0-0.111,0.018h-0.084l-0.019,0.009c-0.005,0.001-0.011,0.003-0.011,0.003c-0.07,0.018-0.161,0.05-0.235,0.148   c-0.012,0.014-0.027,0.03-0.038,0.053l0.004,0.003c-0.102,0.163-0.203,0.564-0.203,0.586c0,0.167,0.066,0.297,0.127,0.42   l0.02,0.041l0.007,0.003c0.005,0.011,0.012,0.022,0.018,0.031c0.004,0.007,0.008,0.012,0.009,0.015l0.009,0.022   c0.031,0.065,0.066,0.142,0.092,0.202c0.004,0.009,0.008,0.02,0.014,0.031l0.043,0.103c0.046,0.103,0.092,0.206,0.136,0.313   c-0.008,0.07-0.033,0.283-0.085,0.69c-0.004,0.028-0.008,0.054-0.008,0.083l-0.065,0.495c-0.05,0.377-0.106,0.804-0.165,1.235   c-0.056,0.432-0.113,0.868-0.164,1.262c-0.305-0.957-0.918-2.931-1.342-4.299l-0.327-1.052c-0.05-0.159-0.089-0.282-0.114-0.359   c-0.015-0.045-0.024-0.075-0.03-0.091c-0.065-0.191-0.186-0.454-0.488-0.535C7.283,17,7.255,16.996,7.221,16.996   c-0.247,0-0.828,0.206-1.453,0.435c-0.127,0.047-0.233,0.087-0.302,0.11c-0.338,0.114-0.7,0.199-1.082,0.289   c-0.721,0.169-1.467,0.346-2.089,0.733c-1.139,0.708-1.136,1.749-1.133,2.852c0.001,0.195,0.001,0.397-0.004,0.601   c-0.068,3.026-0.068,6.248,0,10.142c0.012,0.718,0.16,1.422,0.441,2.092c0.211,0.517,0.681,0.988,1.135,1.445   c0.205,0.206,0.399,0.401,0.569,0.601c0.02,0.02,0.037,0.043,0.058,0.073c0.089,0.114,0.172,0.241,0.24,0.37   c0.015,0.287,0.027,0.571,0.039,0.858l0.012,0.268c0.08,1.789,0.163,3.64,0.222,5.457c0.004,0.138,0.015,0.283,0.034,0.443   c0,1.04-0.001,3.085-0.003,5.133c-0.001,2.052-0.001,4.104-0.001,5.141c0.008,3.393,2.372,5.762,5.749,5.762h0.018   c0.239,0,0.476,0.001,0.714,0.003c0.239,0.001,0.479,0.003,0.717,0.003c0.241,0,0.481-0.001,0.721-0.003   c0.239-0.001,0.477-0.003,0.714-0.003h0.018c3.377,0,5.741-2.368,5.749-5.763c0-2.93,0.052-9.951,0.148-12.922   c0.047-1.421,0.106-2.877,0.174-4.327c0.019-0.407,0.02-0.828,0.022-1.276c0.003-0.979,0.007-1.987,0.206-2.862   c0.138,0.134,0.272,0.275,0.404,0.412c0.274,0.286,0.557,0.582,0.878,0.836c0.565,0.449,1.224,0.861,2.013,1.259   c0.389,0.194,0.777,0.399,1.163,0.609v-6.613C23.287,29.11,23.264,29.065,23.242,29.019z M29.647,34.355   c0,0.301,0.001,0.594,0.003,0.933l0.046-0.016C29.757,34.907,29.737,34.61,29.647,34.355z"></path><path fill="#000000" d="M30.257,33.409v1.667l-0.561,0.195l-0.046,0.016c-0.001-0.339-0.003-0.632-0.003-0.933   c0-0.221,0.001-0.447,0.003-0.698L30.257,33.409z"></path></g></svg>