<svg xmlns="http://www.w3.org/2000/svg" xmlns:xlink="http://www.w3.org/1999/xlink" version="1.1" x="0px" y="0px" viewBox="0 0 64 64" enable-background="new 0 0 64 64" xml:space="preserve"><g><path fill="#000000" d="M42.156,1.954l-3.056,5.074c-0.675,1.121-0.314,2.577,0.807,3.252c1.121,0.675,2.577,0.314,3.252-0.807   l3.056-5.074c0.675-1.121,0.314-2.577-0.807-3.252C44.287,0.472,42.831,0.833,42.156,1.954z"></path><path fill="#000000" d="M54.069,13.068l-5.101,3.01c-1.127,0.665-1.501,2.117-0.837,3.244c0.665,1.127,2.117,1.501,3.244,0.837   l5.101-3.01c1.127-0.665,1.501-2.117,0.837-3.244S55.195,12.403,54.069,13.068z"></path><path fill="#000000" d="M59.261,28.51l-5.919,0.221c-1.307,0.049-2.328,1.148-2.279,2.456c0.049,1.308,1.149,2.328,2.456,2.279   l5.919-0.221c1.307-0.049,2.328-1.148,2.279-2.456C61.668,29.482,60.568,28.461,59.261,28.51z"></path><path fill="#000000" d="M47.897,33.294c-0.576-3.56-2.244-7.659-4.697-11.542c-3.831-6.063-8.767-10.376-12.881-11.256   c-1.714-0.367-3.289-0.134-4.553,0.675c-1.705,1.09-2.566,2.902-2.772,5.118l-0.625,1.202c-0.214,0.412-0.427,0.821-0.653,1.225   c-0.334,0.6-0.641,1.228-0.937,1.836c-0.527,1.08-1.071,2.197-1.769,3.135c-1.001,1.336-2.338,2.175-3.754,3.064   c-0.348,0.219-0.699,0.439-1.044,0.666c-1.469,0.962-8.082,5.418-9.867,6.678c-0.406,0.287-0.771,0.719-1.027,1.216   c-0.671,1.294-0.605,2.699,0.192,4.18c-1.176,1.421-1.438,2.567-1.08,4.514c0.204,1.093,0.616,2.249,1.193,3.345   c0.167,0.315,0.347,0.619,0.534,0.905l0,0c1.826,2.788,4.526,4.001,7.277,3.293c1.261,1.289,2.783,1.715,4.262,1.195l9.712,10.451   l1.076-0.759c1.097-0.774,2.175-1.534,3.277-2.307l0.476-0.333l-0.625-0.69c-0.115-0.129-0.22-0.247-0.326-0.359l-0.938-1.001   c-1.165-1.243-2.332-2.489-3.508-3.724c-0.131-0.14-0.216-0.215-0.213-0.528c0.026-2.163-0.789-4.082-1.656-5.704l0.758-0.524   c0.768-0.53,1.536-1.061,2.302-1.595c1.847-1.297,4.025-2.69,6.179-3.192c1.566-0.364,3.291-0.321,4.96-0.28   c0.359,0.009,0.718,0.018,1.076,0.023l0.766,0.011c0.599,0.251,1.188,0.446,1.76,0.569c1.714,0.367,3.289,0.133,4.553-0.675   C47.663,40.63,48.576,37.493,47.897,33.294z M26.843,40.103l-0.138,0.092c-0.769,0.515-1.534,1.027-2.303,1.537   c-0.916,0.613-1.73,0.133-3.005-1.031c-2.026-1.852-3.505-4.242-4.343-7.023c-0.779-2.582,0.192-3.196,1.956-4.31   c0.257-0.163,0.526-0.332,0.799-0.515c2.006-1.338,3.133-3.454,4.168-5.564c0.87,2.744,2.239,5.604,3.914,8.255   c1.705,2.699,3.629,5.047,5.602,6.904C31.184,38.561,28.836,38.767,26.843,40.103z M42.968,38.396   c-0.343,0.219-0.885,0.165-1.279,0.081c-2.345-0.502-6.502-3.628-10.089-9.306c-4.803-7.602-4.817-13.415-3.478-14.272   c0.343-0.22,0.885-0.165,1.279-0.081c2.345,0.502,6.502,3.628,10.089,9.306c2.111,3.34,3.594,6.942,4.069,9.882   C43.966,36.517,43.555,38.02,42.968,38.396z"></path><path fill="#000000" d="M37.035,32.56c-1-1.15-2.007-2.496-2.971-4.022c-1.304-2.063-2.258-4-2.922-5.737   c2.217-0.553,4.219,0.206,5.984,2.373C38.801,27.402,38.683,29.875,37.035,32.56z"></path></g></svg>