<svg xmlns="http://www.w3.org/2000/svg" xmlns:xlink="http://www.w3.org/1999/xlink" version="1.1" x="0px" y="0px" viewBox="0 0 64 64" enable-background="new 0 0 64 64" xml:space="preserve"><g><path fill="#000000" d="M57.552,13.116c1.398-3.571,2.291-7.348,2.835-11.269c0.096-0.691-0.356-1.169-1.077-1.195   c-0.425-0.016-0.852,0.04-1.279,0.073c-3.623,0.267-7.229,0.636-10.773,1.446c-0.595,0.134-1.187,0.283-1.779,0.445   c-4.055,1.112-8.201,2.122-11.933,4.121c-2.536,1.358-4.84,3.308-6.359,5.771c-1.034,1.677-1.558,3.573-1.587,5.54   c-0.025,1.64,0.029,4.032,0.926,5.469c0.001,0.247-0.04,0.446-0.142,0.568c-1.084,1.295-2.067,2.849-2.989,4.719l-0.007,0.015   l-0.005,0.016c-0.114,0.335-0.263,0.744-0.407,1.14c-0.051,0.14-0.104,0.284-0.157,0.43c-0.096-0.297-0.2-0.588-0.314-0.874   c-0.162-0.409-0.351-0.823-0.518-1.189c-0.227-0.497-0.55-1.05-0.614-1.627c-0.07-0.632,0.213-1.285,0.294-1.911   c0.563-4.309,0.08-8.497-1.41-12.588c-0.962-2.64-2.665-4.606-5.027-6.064c-2.337-1.443-4.898-2.338-7.498-3.151   C7.029,2.815,6.327,2.618,5.618,2.448C5.017,2.304,4.596,2.621,4.54,3.219C4.266,6.171,3.953,9.12,3.723,12.075   c-0.234,3.003-0.187,5.997,0.594,8.941c0.615,2.32,1.72,4.292,3.793,5.62c2.023,1.295,4.248,2.017,6.619,2.295   c1.772,0.208,3.548,0.223,5.303-0.119c0.369,0.845,0.661,1.689,0.836,2.597c0.136,0.707,0.221,1.433,0.303,2.136   c0.282,2.4-0.471,3.327-0.52,5.682c-0.016,0.784,0.305,1.405,0.858,1.662c0.532,0.247,1.169,0.12,1.746-0.346   c0.821-0.663,1.068-1.693,1.167-2.697c0.097-0.986,0.056-0.678,0.166-1.661c0.292-2.599,0.922-5.184,2.1-7.53   c0.61-1.216,1.416-2.315,2.309-3.336c0.891-1.019,1.841-1.963,2.682-3.026c0.989-1.252,2.32-2.35,3.478-3.445   c2.344-2.218,4.792-4.327,7.342-6.305c2.509-1.946,5.118-3.766,7.821-5.432c-3.476,3.184-7.443,6.666-11.23,10.332   C35.69,20.735,29.959,28.005,28.868,29.4c-0.073,0.093-0.02,0.231,0.097,0.25c0.253,0.042,0.52,0.137,0.723,0.121   c1.309,0.173,2.506,0.162,3.829,0.142c1.678-0.027,3.356-0.007,5.03-0.135c0.016-0.001,0.032-0.001,0.047-0.003   c5.081-0.392,9.421-2.328,12.778-6.259C54.1,20.321,56.1,16.83,57.552,13.116z"></path><path fill="#000000" d="M39.777,37.6c-1.285-0.965-2.741-1.562-4.258-1.975c-0.26-0.071-0.522-0.137-0.785-0.197   c-2.122-0.491-4.278-0.844-6.569-1.287c-0.513-0.044-1.026-0.082-1.54-0.116c-0.156,0.753-0.28,1.536-0.371,2.349   c-0.05,0.447-0.068,0.615-0.082,0.767c0.112,0.005,0.226,0.01,0.338,0.017c0.691,0.036,1.428,0.009,2.11,0.121   c1.367,0.226,2.728,0.39,4.06,0.686c0.918,0.204,1.832,0.334,2.727,0.621c0.012,0.004,0.024,0.008,0.036,0.012   c0.607,0.187,1.67,0.427,1.756,1.236c0.081,0.755-0.964,1.017-1.483,1.173c-1.017,0.307-2.03,0.515-3.08,0.692   c-3.139,0.528-6.296,0.783-9.459,0.796c-0.226,0.001-0.452,0.001-0.679,0c-0.506,0.004-1.012,0.001-1.517-0.009   c-2.881-0.05-5.759-0.305-8.621-0.787c-1.05-0.177-2.063-0.385-3.08-0.692c-0.519-0.156-1.564-0.418-1.483-1.173   c0.086-0.809,1.149-1.049,1.756-1.236c0.012-0.004,0.024-0.008,0.036-0.012c0.894-0.287,1.809-0.418,2.727-0.621   c1.362-0.303,2.714-0.518,4.063-0.666c0.939-0.103,1.878-0.174,2.817-0.218c0.04-0.224,0.082-0.437,0.124-0.642   c0.166-0.83,0.3-1.496,0.209-2.491c-0.196,0.009-0.392,0.021-0.588,0.034c-0.702,0.044-1.405,0.113-2.106,0.201   c-2.211,0.278-4.411,0.747-6.575,1.246c-0.263,0.061-0.524,0.126-0.785,0.197c-1.517,0.414-2.973,1.01-4.258,1.975   c-0.86,0.646-1.326,1.459-1.278,2.585c0.055,1.329,0.032,2.661,0.008,3.991c0.26,0.845,0.827,1.519,1.647,2.054   c0.259,0.17,0.527,0.499,0.577,0.79c0.022,0.131,0.045,0.264,0.067,0.396c0.725,4.262,1.427,8.526,2.109,12.794   c0.294,1.838,1.745,3.138,3.617,3.139c3.51,0.003,7.022,0.003,10.532,0.003s7.022,0,10.532-0.003   c1.872-0.001,3.323-1.302,3.617-3.139c0.683-4.268,1.384-8.532,2.11-12.794c0.022-0.131,0.045-0.264,0.067-0.396   c0.05-0.291,0.318-0.62,0.577-0.79c0.82-0.535,1.387-1.209,1.647-2.054c-0.024-1.33-0.048-2.662,0.008-3.991   C41.103,39.058,40.637,38.245,39.777,37.6z"></path></g></svg>